<svg width="202" height="173" viewBox="0 0 202 173" fill="none" xmlns="http://www.w3.org/2000/svg">
<path d="M104.188 83.9984C90.3197 83.9984 76.2716 74.5784 61.7985 74.5784C55.0329 74.5784 43.0625 72.4238 37.5507 76.9334C32.2231 81.2924 28.933 87.0339 24.1184 91.8484C14.7144 101.252 4.43621 119.568 3.70843 132.668C3.38389 138.51 2.13843 144.458 2.13843 150.723C2.13843 157.761 5.27843 164.101 5.27843 170.959C5.27843 172.93 8.80282 168.778 10.7734 168.778C13.7681 168.778 16.7627 168.778 19.7573 168.778C27.9215 168.778 35.5764 170.348 43.8307 170.348C57.6285 170.348 69.3604 166.845 81.4235 160.143C105.807 146.597 105.758 111.582 105.758 87.1384" stroke="#66DD92" stroke-width="3" stroke-linecap="round"/>
<path d="M105.759 85.5684C105.759 56.5795 115.002 16.7571 146.23 6.71947C158.778 2.68615 170.592 0.978518 183.474 3.84114C187.742 4.78967 192.529 6.59178 196.819 7.06836C202.655 7.71681 198.389 14.1445 198.389 17.2734C198.389 28.1858 188.895 40.435 185.48 50.6795C181.538 62.5061 172.581 71.8806 162.279 78.5034C150.913 85.81 142.887 91.8484 129.309 91.8484C118.203 91.8484 111.636 88.5069 102.619 83.9984" stroke="#66DD92" stroke-width="3" stroke-linecap="round"/>
<path d="M101.049 83.9985C89.203 83.9985 80.3628 94.8187 72.7885 102.839C67.9138 108 63.8887 115.387 60.5774 121.679C58.7936 125.068 57.3032 130.991 53.9485 132.669" stroke="#66DD92" stroke-width="3" stroke-linecap="round"/>
<path d="M107.329 85.5684C109.525 73.4895 129.681 55.4651 140.299 50.1561C147.406 46.6023 155.877 47.8884 163.849 47.8884" stroke="#66DD92" stroke-width="3" stroke-linecap="round"/>
</svg>
